<svg xmlns="http://www.w3.org/2000/svg" xmlns:xlink="http://www.w3.org/1999/xlink" width="100" zoomAndPan="magnify" viewBox="0 0 75.119995 83.04" height="100" preserveAspectRatio="xMidYMid meet" version="1.0"><defs><clipPath id="e7da7c2cf9"><path d="M 0 0.0078125 L 74.132812 0.0078125 L 74.132812 74.136719 L 0 74.136719 Z M 0 0.0078125 " clip-rule="nonzero"/></clipPath><clipPath id="f2d4d128c8"><path d="M 10.304688 29.660156 L 25.128906 29.660156 L 25.128906 44.484375 L 10.304688 44.484375 Z M 10.304688 29.660156 " clip-rule="nonzero"/></clipPath><clipPath id="e157cf66de"><path d="M 17.71875 29.660156 C 13.625 29.660156 10.304688 32.976562 10.304688 37.070312 C 10.304688 41.167969 13.625 44.484375 17.71875 44.484375 C 21.8125 44.484375 25.128906 41.167969 25.128906 37.070312 C 25.128906 32.976562 21.8125 29.660156 17.71875 29.660156 Z M 17.71875 29.660156 " clip-rule="nonzero"/></clipPath><clipPath id="bfa52a09e7"><path d="M 0.304688 0.660156 L 15.128906 0.660156 L 15.128906 15.484375 L 0.304688 15.484375 Z M 0.304688 0.660156 " clip-rule="nonzero"/></clipPath><clipPath id="e902105775"><path d="M 7.71875 0.660156 C 3.625 0.660156 0.304688 3.976562 0.304688 8.070312 C 0.304688 12.167969 3.625 15.484375 7.71875 15.484375 C 11.8125 15.484375 15.128906 12.167969 15.128906 8.070312 C 15.128906 3.976562 11.8125 0.660156 7.71875 0.660156 Z M 7.71875 0.660156 " clip-rule="nonzero"/></clipPath><clipPath id="f57803779a"><rect x="0" width="16" y="0" height="16"/></clipPath><clipPath id="ac19fed370"><path d="M 29.652344 29.660156 L 44.480469 29.660156 L 44.480469 44.484375 L 29.652344 44.484375 Z M 29.652344 29.660156 " clip-rule="nonzero"/></clipPath><clipPath id="754be5b9e4"><path d="M 37.066406 29.660156 C 32.972656 29.660156 29.652344 32.976562 29.652344 37.070312 C 29.652344 41.167969 32.972656 44.484375 37.066406 44.484375 C 41.160156 44.484375 44.480469 41.167969 44.480469 37.070312 C 44.480469 32.976562 41.160156 29.660156 37.066406 29.660156 Z M 37.066406 29.660156 " clip-rule="nonzero"/></clipPath><clipPath id="7fe3ccbac8"><path d="M 0.652344 0.660156 L 15.480469 0.660156 L 15.480469 15.484375 L 0.652344 15.484375 Z M 0.652344 0.660156 " clip-rule="nonzero"/></clipPath><clipPath id="70c1aadca5"><path d="M 8.066406 0.660156 C 3.972656 0.660156 0.652344 3.976562 0.652344 8.070312 C 0.652344 12.167969 3.972656 15.484375 8.066406 15.484375 C 12.160156 15.484375 15.480469 12.167969 15.480469 8.070312 C 15.480469 3.976562 12.160156 0.660156 8.066406 0.660156 Z M 8.066406 0.660156 " clip-rule="nonzero"/></clipPath><clipPath id="cf694b6a6c"><rect x="0" width="16" y="0" height="16"/></clipPath><clipPath id="9002b99132"><path d="M 49.015625 27.09375 L 69.03125 27.09375 L 69.03125 47.109375 L 49.015625 47.109375 Z M 49.015625 27.09375 " clip-rule="nonzero"/></clipPath><clipPath id="6ce5eceb33"><path d="M 59.023438 27.09375 C 53.496094 27.09375 49.015625 31.574219 49.015625 37.101562 C 49.015625 42.625 53.496094 47.109375 59.023438 47.109375 C 64.550781 47.109375 69.03125 42.625 69.03125 37.101562 C 69.03125 31.574219 64.550781 27.09375 59.023438 27.09375 Z M 59.023438 27.09375 " clip-rule="nonzero"/></clipPath><clipPath id="6c280c7b61"><path d="M 0.015625 0.09375 L 20.03125 0.09375 L 20.03125 20.109375 L 0.015625 20.109375 Z M 0.015625 0.09375 " clip-rule="nonzero"/></clipPath><clipPath id="212a0a62ba"><path d="M 10.023438 0.09375 C 4.496094 0.09375 0.015625 4.574219 0.015625 10.101562 C 0.015625 15.625 4.496094 20.109375 10.023438 20.109375 C 15.550781 20.109375 20.03125 15.625 20.03125 10.101562 C 20.03125 4.574219 15.550781 0.09375 10.023438 0.09375 Z M 10.023438 0.09375 " clip-rule="nonzero"/></clipPath><clipPath id="179d077471"><rect x="0" width="21" y="0" height="21"/></clipPath><clipPath id="685ccd86e0"><path d="M 51.582031 29.660156 L 66.410156 29.660156 L 66.410156 44.484375 L 51.582031 44.484375 Z M 51.582031 29.660156 " clip-rule="nonzero"/></clipPath><clipPath id="4515652738"><path d="M 58.996094 29.660156 C 54.902344 29.660156 51.582031 32.976562 51.582031 37.070312 C 51.582031 41.167969 54.902344 44.484375 58.996094 44.484375 C 63.089844 44.484375 66.410156 41.167969 66.410156 37.070312 C 66.410156 32.976562 63.089844 29.660156 58.996094 29.660156 Z M 58.996094 29.660156 " clip-rule="nonzero"/></clipPath><clipPath id="51315da182"><path d="M 0.582031 0.660156 L 15.410156 0.660156 L 15.410156 15.484375 L 0.582031 15.484375 Z M 0.582031 0.660156 " clip-rule="nonzero"/></clipPath><clipPath id="3fc9236d17"><path d="M 7.996094 0.660156 C 3.902344 0.660156 0.582031 3.976562 0.582031 8.070312 C 0.582031 12.167969 3.902344 15.484375 7.996094 15.484375 C 12.089844 15.484375 15.410156 12.167969 15.410156 8.070312 C 15.410156 3.976562 12.089844 0.660156 7.996094 0.660156 Z M 7.996094 0.660156 " clip-rule="nonzero"/></clipPath><clipPath id="c1e8e183cc"><rect x="0" width="16" y="0" height="16"/></clipPath><clipPath id="75458feca3"><path d="M 54.546875 32.652344 L 63.445312 32.652344 L 63.445312 41.546875 L 54.546875 41.546875 Z M 54.546875 32.652344 " clip-rule="nonzero"/></clipPath><clipPath id="fafe0a5271"><path d="M 58.996094 32.652344 C 56.539062 32.652344 54.546875 34.644531 54.546875 37.101562 C 54.546875 39.554688 56.539062 41.546875 58.996094 41.546875 C 61.453125 41.546875 63.445312 39.554688 63.445312 37.101562 C 63.445312 34.644531 61.453125 32.652344 58.996094 32.652344 Z M 58.996094 32.652344 " clip-rule="nonzero"/></clipPath><clipPath id="937470fbbd"><path d="M 0.546875 0.652344 L 9.445312 0.652344 L 9.445312 9.546875 L 0.546875 9.546875 Z M 0.546875 0.652344 " clip-rule="nonzero"/></clipPath><clipPath id="c8ba9b9910"><path d="M 4.996094 0.652344 C 2.539062 0.652344 0.546875 2.644531 0.546875 5.101562 C 0.546875 7.554688 2.539062 9.546875 4.996094 9.546875 C 7.453125 9.546875 9.445312 7.554688 9.445312 5.101562 C 9.445312 2.644531 7.453125 0.652344 4.996094 0.652344 Z M 4.996094 0.652344 " clip-rule="nonzero"/></clipPath><clipPath id="c166301a34"><rect x="0" width="10" y="0" height="10"/></clipPath></defs><g clip-path="url(#e7da7c2cf9)"><path fill="#ffffff" d="M 0 0.0078125 L 74.132812 0.0078125 L 74.132812 74.136719 L 0 74.136719 Z M 0 0.0078125 " fill-opacity="1" fill-rule="nonzero"/><path fill="#ffffff" d="M 0 0.0078125 L 74.132812 0.0078125 L 74.132812 74.136719 L 0 74.136719 Z M 0 0.0078125 " fill-opacity="1" fill-rule="nonzero"/></g><g clip-path="url(#f2d4d128c8)"><g clip-path="url(#e157cf66de)"><g transform="matrix(1, 0, 0, 1, 10, 29)"><g clip-path="url(#f57803779a)"><g clip-path="url(#bfa52a09e7)"><g clip-path="url(#e902105775)"><path fill="#188bca" d="M 0.304688 0.660156 L 15.128906 0.660156 L 15.128906 15.484375 L 0.304688 15.484375 Z M 0.304688 0.660156 " fill-opacity="1" fill-rule="nonzero"/></g></g></g></g></g></g><g clip-path="url(#ac19fed370)"><g clip-path="url(#754be5b9e4)"><g transform="matrix(1, 0, 0, 1, 29, 29)"><g clip-path="url(#cf694b6a6c)"><g clip-path="url(#7fe3ccbac8)"><g clip-path="url(#70c1aadca5)"><path fill="#188bca" d="M 0.652344 0.660156 L 15.480469 0.660156 L 15.480469 15.484375 L 0.652344 15.484375 Z M 0.652344 0.660156 " fill-opacity="1" fill-rule="nonzero"/></g></g></g></g></g></g><g clip-path="url(#9002b99132)"><g clip-path="url(#6ce5eceb33)"><g transform="matrix(1, 0, 0, 1, 49, 27)"><g clip-path="url(#179d077471)"><g clip-path="url(#6c280c7b61)"><g clip-path="url(#212a0a62ba)"><path fill="#188bca" d="M 0.015625 0.09375 L 20.03125 0.09375 L 20.03125 20.109375 L 0.015625 20.109375 Z M 0.015625 0.09375 " fill-opacity="1" fill-rule="nonzero"/></g></g></g></g></g></g><g clip-path="url(#685ccd86e0)"><g clip-path="url(#4515652738)"><g transform="matrix(1, 0, 0, 1, 51, 29)"><g clip-path="url(#c1e8e183cc)"><g clip-path="url(#51315da182)"><g clip-path="url(#3fc9236d17)"><path fill="#ffffff" d="M 0.582031 0.660156 L 15.410156 0.660156 L 15.410156 15.484375 L 0.582031 15.484375 Z M 0.582031 0.660156 " fill-opacity="1" fill-rule="nonzero"/></g></g></g></g></g></g><g clip-path="url(#75458feca3)"><g clip-path="url(#fafe0a5271)"><g transform="matrix(1, 0, 0, 1, 54, 32)"><g clip-path="url(#c166301a34)"><g clip-path="url(#937470fbbd)"><g clip-path="url(#c8ba9b9910)"><path fill="#188bca" d="M 0.546875 0.652344 L 9.445312 0.652344 L 9.445312 9.546875 L 0.546875 9.546875 Z M 0.546875 0.652344 " fill-opacity="1" fill-rule="nonzero"/></g></g></g></g></g></g></svg>