<svg xmlns="http://www.w3.org/2000/svg" width="240" height="120" viewBox="0 0 240 120" role="img" aria-labelledby="title">
  <title id="title">Demo Coffee</title>
  <rect width="240" height="120" rx="8" fill="#0f766e"/>
  <circle cx="74" cy="60" r="28" fill="#ffffff" opacity="0.95"/>
  <path d="M67 48h28v18c0 9-7 16-16 16s-16-7-16-16V52c0-2 2-4 4-4z" fill="#1f2933"/>
  <path d="M95 55h8c6 0 10 4 10 9s-4 9-10 9h-8v-6h8c2 0 4-1 4-3s-2-3-4-3h-8z" fill="#1f2933"/>
  <text x="122" y="56" font-family="Arial, sans-serif" font-size="20" font-weight="700" fill="#ffffff">Demo</text>
  <text x="122" y="80" font-family="Arial, sans-serif" font-size="20" font-weight="700" fill="#ffffff">Coffee</text>
</svg>

