<svg xmlns="http://www.w3.org/2000/svg" xmlns:xlink="http://www.w3.org/1999/xlink" width="2000" zoomAndPan="magnify" viewBox="0 0 1500 1499.999933" height="2000" preserveAspectRatio="xMidYMid meet" version="1.0"><defs><clipPath id="b334e1b2cb"><path d="M 208.5 600 L 508.5 600 L 508.5 900 L 208.5 900 Z M 208.5 600 " clip-rule="nonzero"/></clipPath><clipPath id="ae68825623"><path d="M 358.5 600 C 275.65625 600 208.5 667.15625 208.5 750 C 208.5 832.84375 275.65625 900 358.5 900 C 441.34375 900 508.5 832.84375 508.5 750 C 508.5 667.15625 441.34375 600 358.5 600 Z M 358.5 600 " clip-rule="nonzero"/></clipPath><clipPath id="94e4d4a849"><path d="M 0.5 0 L 300.5 0 L 300.5 300 L 0.5 300 Z M 0.5 0 " clip-rule="nonzero"/></clipPath><clipPath id="cb0833ffb2"><path d="M 150.5 0 C 67.65625 0 0.5 67.15625 0.5 150 C 0.5 232.84375 67.65625 300 150.5 300 C 233.34375 300 300.5 232.84375 300.5 150 C 300.5 67.15625 233.34375 0 150.5 0 Z M 150.5 0 " clip-rule="nonzero"/></clipPath><clipPath id="236c55084a"><rect x="0" width="301" y="0" height="300"/></clipPath><clipPath id="f5ef802724"><path d="M 600 600 L 900 600 L 900 900 L 600 900 Z M 600 600 " clip-rule="nonzero"/></clipPath><clipPath id="5a848cfdd4"><path d="M 750 600 C 667.15625 600 600 667.15625 600 750 C 600 832.84375 667.15625 900 750 900 C 832.84375 900 900 832.84375 900 750 C 900 667.15625 832.84375 600 750 600 Z M 750 600 " clip-rule="nonzero"/></clipPath><clipPath id="a887023af7"><path d="M 0 0 L 300 0 L 300 300 L 0 300 Z M 0 0 " clip-rule="nonzero"/></clipPath><clipPath id="de024dca87"><path d="M 150 0 C 67.15625 0 0 67.15625 0 150 C 0 232.84375 67.15625 300 150 300 C 232.84375 300 300 232.84375 300 150 C 300 67.15625 232.84375 0 150 0 Z M 150 0 " clip-rule="nonzero"/></clipPath><clipPath id="df6e8df21b"><rect x="0" width="300" y="0" height="300"/></clipPath><clipPath id="4daac90fe1"><path d="M 991.792969 548.058594 L 1396.792969 548.058594 L 1396.792969 953.058594 L 991.792969 953.058594 Z M 991.792969 548.058594 " clip-rule="nonzero"/></clipPath><clipPath id="d503a6f89b"><path d="M 1194.292969 548.058594 C 1082.457031 548.058594 991.792969 638.722656 991.792969 750.558594 C 991.792969 862.398438 1082.457031 953.058594 1194.292969 953.058594 C 1306.132812 953.058594 1396.792969 862.398438 1396.792969 750.558594 C 1396.792969 638.722656 1306.132812 548.058594 1194.292969 548.058594 Z M 1194.292969 548.058594 " clip-rule="nonzero"/></clipPath><clipPath id="6d8aea4c9a"><path d="M 0.792969 0.0585938 L 405.792969 0.0585938 L 405.792969 405.058594 L 0.792969 405.058594 Z M 0.792969 0.0585938 " clip-rule="nonzero"/></clipPath><clipPath id="134bdd3010"><path d="M 203.292969 0.0585938 C 91.457031 0.0585938 0.792969 90.722656 0.792969 202.558594 C 0.792969 314.398438 91.457031 405.058594 203.292969 405.058594 C 315.132812 405.058594 405.792969 314.398438 405.792969 202.558594 C 405.792969 90.722656 315.132812 0.0585938 203.292969 0.0585938 Z M 203.292969 0.0585938 " clip-rule="nonzero"/></clipPath><clipPath id="b2585e157c"><rect x="0" width="406" y="0" height="406"/></clipPath><clipPath id="1c15e7a47a"><path d="M 1043.734375 600 L 1343.734375 600 L 1343.734375 900 L 1043.734375 900 Z M 1043.734375 600 " clip-rule="nonzero"/></clipPath><clipPath id="d3f9172ae6"><path d="M 1193.734375 600 C 1110.890625 600 1043.734375 667.15625 1043.734375 750 C 1043.734375 832.84375 1110.890625 900 1193.734375 900 C 1276.578125 900 1343.734375 832.84375 1343.734375 750 C 1343.734375 667.15625 1276.578125 600 1193.734375 600 Z M 1193.734375 600 " clip-rule="nonzero"/></clipPath><clipPath id="08bb6fb0af"><path d="M 0.734375 0 L 300.734375 0 L 300.734375 300 L 0.734375 300 Z M 0.734375 0 " clip-rule="nonzero"/></clipPath><clipPath id="a238b0871f"><path d="M 150.734375 0 C 67.890625 0 0.734375 67.15625 0.734375 150 C 0.734375 232.84375 67.890625 300 150.734375 300 C 233.578125 300 300.734375 232.84375 300.734375 150 C 300.734375 67.15625 233.578125 0 150.734375 0 Z M 150.734375 0 " clip-rule="nonzero"/></clipPath><clipPath id="acecfb439b"><rect x="0" width="301" y="0" height="300"/></clipPath><clipPath id="b6b969024c"><path d="M 1103.734375 660.558594 L 1283.734375 660.558594 L 1283.734375 840.558594 L 1103.734375 840.558594 Z M 1103.734375 660.558594 " clip-rule="nonzero"/></clipPath><clipPath id="7ed01f16e5"><path d="M 1193.734375 660.558594 C 1144.027344 660.558594 1103.734375 700.851562 1103.734375 750.558594 C 1103.734375 800.265625 1144.027344 840.558594 1193.734375 840.558594 C 1243.441406 840.558594 1283.734375 800.265625 1283.734375 750.558594 C 1283.734375 700.851562 1243.441406 660.558594 1193.734375 660.558594 Z M 1193.734375 660.558594 " clip-rule="nonzero"/></clipPath><clipPath id="9083be8844"><path d="M 0.734375 0.558594 L 180.734375 0.558594 L 180.734375 180.558594 L 0.734375 180.558594 Z M 0.734375 0.558594 " clip-rule="nonzero"/></clipPath><clipPath id="ac3b4ea33e"><path d="M 90.734375 0.558594 C 41.027344 0.558594 0.734375 40.851562 0.734375 90.558594 C 0.734375 140.265625 41.027344 180.558594 90.734375 180.558594 C 140.441406 180.558594 180.734375 140.265625 180.734375 90.558594 C 180.734375 40.851562 140.441406 0.558594 90.734375 0.558594 Z M 90.734375 0.558594 " clip-rule="nonzero"/></clipPath><clipPath id="ce1ed988fa"><rect x="0" width="181" y="0" height="181"/></clipPath></defs><g clip-path="url(#b334e1b2cb)"><g clip-path="url(#ae68825623)"><g transform="matrix(1, 0, 0, 1, 208, 600)"><g clip-path="url(#236c55084a)"><g clip-path="url(#94e4d4a849)"><g clip-path="url(#cb0833ffb2)"><path fill="#188bca" d="M 0.5 0 L 300.5 0 L 300.5 300 L 0.5 300 Z M 0.5 0 " fill-opacity="1" fill-rule="nonzero"/></g></g></g></g></g></g><g clip-path="url(#f5ef802724)"><g clip-path="url(#5a848cfdd4)"><g transform="matrix(1, 0, 0, 1, 600, 600)"><g clip-path="url(#df6e8df21b)"><g clip-path="url(#a887023af7)"><g clip-path="url(#de024dca87)"><rect x="-930" width="2160" fill="#188bca" height="2159.999904" y="-929.999985" fill-opacity="1"/></g></g></g></g></g></g><g clip-path="url(#4daac90fe1)"><g clip-path="url(#d503a6f89b)"><g transform="matrix(1, 0, 0, 1, 991, 548)"><g clip-path="url(#b2585e157c)"><g clip-path="url(#6d8aea4c9a)"><g clip-path="url(#134bdd3010)"><path fill="#188bca" d="M 0.792969 0.0585938 L 405.792969 0.0585938 L 405.792969 405.058594 L 0.792969 405.058594 Z M 0.792969 0.0585938 " fill-opacity="1" fill-rule="nonzero"/></g></g></g></g></g></g><g clip-path="url(#1c15e7a47a)"><g clip-path="url(#d3f9172ae6)"><g transform="matrix(1, 0, 0, 1, 1043, 600)"><g clip-path="url(#acecfb439b)"><g clip-path="url(#08bb6fb0af)"><g clip-path="url(#a238b0871f)"><path fill="#ffffff" d="M 0.734375 0 L 300.734375 0 L 300.734375 300 L 0.734375 300 Z M 0.734375 0 " fill-opacity="1" fill-rule="nonzero"/></g></g></g></g></g></g><g clip-path="url(#b6b969024c)"><g clip-path="url(#7ed01f16e5)"><g transform="matrix(1, 0, 0, 1, 1103, 660)"><g clip-path="url(#ce1ed988fa)"><g clip-path="url(#9083be8844)"><g clip-path="url(#ac3b4ea33e)"><path fill="#188bca" d="M 0.734375 0.558594 L 180.734375 0.558594 L 180.734375 180.558594 L 0.734375 180.558594 Z M 0.734375 0.558594 " fill-opacity="1" fill-rule="nonzero"/></g></g></g></g></g></g></svg>