<svg xmlns="http://www.w3.org/2000/svg" xmlns:xlink="http://www.w3.org/1999/xlink" width="2000" zoomAndPan="magnify" viewBox="0 0 1500 374.999991" height="500" preserveAspectRatio="xMidYMid meet" version="1.0"><defs><g/><clipPath id="f768c8599a"><path d="M 0.5 23.824219 L 135.351562 23.824219 L 135.351562 158.675781 L 0.5 158.675781 Z M 0.5 23.824219 " clip-rule="nonzero"/></clipPath><clipPath id="c7ffa98d4d"><path d="M 67.925781 23.824219 C 30.6875 23.824219 0.5 54.011719 0.5 91.25 C 0.5 128.488281 30.6875 158.675781 67.925781 158.675781 C 105.164062 158.675781 135.351562 128.488281 135.351562 91.25 C 135.351562 54.011719 105.164062 23.824219 67.925781 23.824219 Z M 67.925781 23.824219 " clip-rule="nonzero"/></clipPath><clipPath id="ca444a26d4"><path d="M 0.5 0.824219 L 135.351562 0.824219 L 135.351562 135.675781 L 0.5 135.675781 Z M 0.5 0.824219 " clip-rule="nonzero"/></clipPath><clipPath id="bd75b7a509"><path d="M 67.925781 0.824219 C 30.6875 0.824219 0.5 31.011719 0.5 68.25 C 0.5 105.488281 30.6875 135.675781 67.925781 135.675781 C 105.164062 135.675781 135.351562 105.488281 135.351562 68.25 C 135.351562 31.011719 105.164062 0.824219 67.925781 0.824219 Z M 67.925781 0.824219 " clip-rule="nonzero"/></clipPath><clipPath id="4335c77b8c"><rect x="0" width="136" y="0" height="136"/></clipPath><clipPath id="13fc0d6143"><path d="M 176.480469 23.824219 L 311.332031 23.824219 L 311.332031 158.675781 L 176.480469 158.675781 Z M 176.480469 23.824219 " clip-rule="nonzero"/></clipPath><clipPath id="47e54680a9"><path d="M 243.90625 23.824219 C 206.667969 23.824219 176.480469 54.011719 176.480469 91.25 C 176.480469 128.488281 206.667969 158.675781 243.90625 158.675781 C 281.144531 158.675781 311.332031 128.488281 311.332031 91.25 C 311.332031 54.011719 281.144531 23.824219 243.90625 23.824219 Z M 243.90625 23.824219 " clip-rule="nonzero"/></clipPath><clipPath id="ef778f91ef"><path d="M 0.480469 0.824219 L 135.332031 0.824219 L 135.332031 135.675781 L 0.480469 135.675781 Z M 0.480469 0.824219 " clip-rule="nonzero"/></clipPath><clipPath id="1b307503e1"><path d="M 67.90625 0.824219 C 30.667969 0.824219 0.480469 31.011719 0.480469 68.25 C 0.480469 105.488281 30.667969 135.675781 67.90625 135.675781 C 105.144531 135.675781 135.332031 105.488281 135.332031 68.25 C 135.332031 31.011719 105.144531 0.824219 67.90625 0.824219 Z M 67.90625 0.824219 " clip-rule="nonzero"/></clipPath><clipPath id="1def376e53"><rect x="0" width="136" y="0" height="136"/></clipPath><clipPath id="e42159e274"><path d="M 352.59375 0.476562 L 534.644531 0.476562 L 534.644531 182.523438 L 352.59375 182.523438 Z M 352.59375 0.476562 " clip-rule="nonzero"/></clipPath><clipPath id="723ff05118"><path d="M 443.621094 0.476562 C 393.347656 0.476562 352.59375 41.226562 352.59375 91.5 C 352.59375 141.773438 393.347656 182.523438 443.621094 182.523438 C 493.890625 182.523438 534.644531 141.773438 534.644531 91.5 C 534.644531 41.226562 493.890625 0.476562 443.621094 0.476562 Z M 443.621094 0.476562 " clip-rule="nonzero"/></clipPath><clipPath id="b0f812b1ac"><path d="M 0.59375 0.476562 L 182.644531 0.476562 L 182.644531 182.523438 L 0.59375 182.523438 Z M 0.59375 0.476562 " clip-rule="nonzero"/></clipPath><clipPath id="2060427baf"><path d="M 91.621094 0.476562 C 41.347656 0.476562 0.59375 41.226562 0.59375 91.5 C 0.59375 141.773438 41.347656 182.523438 91.621094 182.523438 C 141.890625 182.523438 182.644531 141.773438 182.644531 91.5 C 182.644531 41.226562 141.890625 0.476562 91.621094 0.476562 Z M 91.621094 0.476562 " clip-rule="nonzero"/></clipPath><clipPath id="f1fd5d5bfa"><rect x="0" width="183" y="0" height="183"/></clipPath><clipPath id="c1c1c297ac"><path d="M 375.941406 23.824219 L 510.792969 23.824219 L 510.792969 158.675781 L 375.941406 158.675781 Z M 375.941406 23.824219 " clip-rule="nonzero"/></clipPath><clipPath id="85692c3fb5"><path d="M 443.367188 23.824219 C 406.128906 23.824219 375.941406 54.011719 375.941406 91.25 C 375.941406 128.488281 406.128906 158.675781 443.367188 158.675781 C 480.605469 158.675781 510.792969 128.488281 510.792969 91.25 C 510.792969 54.011719 480.605469 23.824219 443.367188 23.824219 Z M 443.367188 23.824219 " clip-rule="nonzero"/></clipPath><clipPath id="7715ac29f0"><path d="M 0.941406 0.824219 L 135.792969 0.824219 L 135.792969 135.675781 L 0.941406 135.675781 Z M 0.941406 0.824219 " clip-rule="nonzero"/></clipPath><clipPath id="08566ce50a"><path d="M 68.367188 0.824219 C 31.128906 0.824219 0.941406 31.011719 0.941406 68.25 C 0.941406 105.488281 31.128906 135.675781 68.367188 135.675781 C 105.605469 135.675781 135.792969 105.488281 135.792969 68.25 C 135.792969 31.011719 105.605469 0.824219 68.367188 0.824219 Z M 68.367188 0.824219 " clip-rule="nonzero"/></clipPath><clipPath id="20d950c89d"><rect x="0" width="136" y="0" height="136"/></clipPath><clipPath id="6f6f1ed906"><path d="M 402.914062 51.042969 L 483.824219 51.042969 L 483.824219 131.957031 L 402.914062 131.957031 Z M 402.914062 51.042969 " clip-rule="nonzero"/></clipPath><clipPath id="9a66d9879e"><path d="M 443.367188 51.042969 C 421.023438 51.042969 402.914062 69.15625 402.914062 91.5 C 402.914062 113.84375 421.023438 131.957031 443.367188 131.957031 C 465.710938 131.957031 483.824219 113.84375 483.824219 91.5 C 483.824219 69.15625 465.710938 51.042969 443.367188 51.042969 Z M 443.367188 51.042969 " clip-rule="nonzero"/></clipPath><clipPath id="149c382079"><path d="M 0.914062 0.0429688 L 81.824219 0.0429688 L 81.824219 80.957031 L 0.914062 80.957031 Z M 0.914062 0.0429688 " clip-rule="nonzero"/></clipPath><clipPath id="1cafd391db"><path d="M 41.367188 0.0429688 C 19.023438 0.0429688 0.914062 18.15625 0.914062 40.5 C 0.914062 62.84375 19.023438 80.957031 41.367188 80.957031 C 63.710938 80.957031 81.824219 62.84375 81.824219 40.5 C 81.824219 18.15625 63.710938 0.0429688 41.367188 0.0429688 Z M 41.367188 0.0429688 " clip-rule="nonzero"/></clipPath><clipPath id="2d7e465ae1"><rect x="0" width="82" y="0" height="81"/></clipPath><clipPath id="71c36c0d49"><rect x="0" width="535" y="0" height="183"/></clipPath><clipPath id="01cf936bee"><rect x="0" width="817" y="0" height="268"/></clipPath></defs><g transform="matrix(1, 0, 0, 1, 37, 96)"><g clip-path="url(#71c36c0d49)"><g clip-path="url(#f768c8599a)"><g clip-path="url(#c7ffa98d4d)"><g transform="matrix(1, 0, 0, 1, 0, 23)"><g clip-path="url(#4335c77b8c)"><g clip-path="url(#ca444a26d4)"><g clip-path="url(#bd75b7a509)"><path fill="#188bca" d="M 0.5 0.824219 L 135.351562 0.824219 L 135.351562 135.675781 L 0.5 135.675781 Z M 0.5 0.824219 " fill-opacity="1" fill-rule="nonzero"/></g></g></g></g></g></g><g clip-path="url(#13fc0d6143)"><g clip-path="url(#47e54680a9)"><g transform="matrix(1, 0, 0, 1, 176, 23)"><g clip-path="url(#1def376e53)"><g clip-path="url(#ef778f91ef)"><g clip-path="url(#1b307503e1)"><path fill="#188bca" d="M 0.480469 0.824219 L 135.332031 0.824219 L 135.332031 135.675781 L 0.480469 135.675781 Z M 0.480469 0.824219 " fill-opacity="1" fill-rule="nonzero"/></g></g></g></g></g></g><g clip-path="url(#e42159e274)"><g clip-path="url(#723ff05118)"><g transform="matrix(1, 0, 0, 1, 352, 0)"><g clip-path="url(#f1fd5d5bfa)"><g clip-path="url(#b0f812b1ac)"><g clip-path="url(#2060427baf)"><path fill="#188bca" d="M 0.59375 0.476562 L 182.644531 0.476562 L 182.644531 182.523438 L 0.59375 182.523438 Z M 0.59375 0.476562 " fill-opacity="1" fill-rule="nonzero"/></g></g></g></g></g></g><g clip-path="url(#c1c1c297ac)"><g clip-path="url(#85692c3fb5)"><g transform="matrix(1, 0, 0, 1, 375, 23)"><g clip-path="url(#20d950c89d)"><g clip-path="url(#7715ac29f0)"><g clip-path="url(#08566ce50a)"><path fill="#ffffff" d="M 0.941406 0.824219 L 135.792969 0.824219 L 135.792969 135.675781 L 0.941406 135.675781 Z M 0.941406 0.824219 " fill-opacity="1" fill-rule="nonzero"/></g></g></g></g></g></g><g clip-path="url(#6f6f1ed906)"><g clip-path="url(#9a66d9879e)"><g transform="matrix(1, 0, 0, 1, 402, 51)"><g clip-path="url(#2d7e465ae1)"><g clip-path="url(#149c382079)"><g clip-path="url(#1cafd391db)"><path fill="#188bca" d="M 0.914062 0.0429688 L 81.824219 0.0429688 L 81.824219 80.957031 L 0.914062 80.957031 Z M 0.914062 0.0429688 " fill-opacity="1" fill-rule="nonzero"/></g></g></g></g></g></g></g></g><g transform="matrix(1, 0, 0, 1, 648, 30)"><g clip-path="url(#01cf936bee)"><g fill="#000000" fill-opacity="1"><g transform="translate(1.136167, 200.291528)"><g><path d="M 44.3125 -91.109375 C 47.488281 -96.054688 51.863281 -100.050781 57.4375 -103.09375 C 63.019531 -106.132812 69.550781 -107.65625 77.03125 -107.65625 C 85.78125 -107.65625 93.703125 -105.4375 100.796875 -101 C 107.898438 -96.5625 113.515625 -90.21875 117.640625 -81.96875 C 121.765625 -73.726562 123.828125 -64.15625 123.828125 -53.25 C 123.828125 -42.351562 121.765625 -32.75 117.640625 -24.4375 C 113.515625 -16.132812 107.898438 -9.734375 100.796875 -5.234375 C 93.703125 -0.734375 85.78125 1.515625 77.03125 1.515625 C 69.675781 1.515625 63.175781 -0.00390625 57.53125 -3.046875 C 51.894531 -6.085938 47.488281 -10.015625 44.3125 -14.828125 L 44.3125 50.59375 L 11.796875 50.59375 L 11.796875 -106.140625 L 44.3125 -106.140625 Z M 90.734375 -53.25 C 90.734375 -61.375 88.476562 -67.75 83.96875 -72.375 C 79.46875 -77 73.921875 -79.3125 67.328125 -79.3125 C 60.859375 -79.3125 55.375 -76.960938 50.875 -72.265625 C 46.375 -67.578125 44.125 -61.175781 44.125 -53.0625 C 44.125 -44.945312 46.375 -38.539062 50.875 -33.84375 C 55.375 -29.15625 60.859375 -26.8125 67.328125 -26.8125 C 73.796875 -26.8125 79.3125 -29.1875 83.875 -33.9375 C 88.445312 -38.695312 90.734375 -45.132812 90.734375 -53.25 Z M 90.734375 -53.25 "/></g></g></g><g fill="#000000" fill-opacity="1"><g transform="translate(130.285672, 200.291528)"><g><path d="M 116.59375 -106.140625 L 116.59375 0 L 84.0625 0 L 84.0625 -14.453125 C 80.769531 -9.765625 76.300781 -5.992188 70.65625 -3.140625 C 65.019531 -0.285156 58.773438 1.140625 51.921875 1.140625 C 43.804688 1.140625 36.640625 -0.664062 30.421875 -4.28125 C 24.210938 -7.894531 19.394531 -13.125 15.96875 -19.96875 C 12.550781 -26.820312 10.84375 -34.875 10.84375 -44.125 L 10.84375 -106.140625 L 43.171875 -106.140625 L 43.171875 -48.5 C 43.171875 -41.394531 45.007812 -35.878906 48.6875 -31.953125 C 52.363281 -28.023438 57.3125 -26.0625 63.53125 -26.0625 C 69.863281 -26.0625 74.867188 -28.023438 78.546875 -31.953125 C 82.222656 -35.878906 84.0625 -41.394531 84.0625 -48.5 L 84.0625 -106.140625 Z M 116.59375 -106.140625 "/></g></g></g><g fill="#000000" fill-opacity="1"><g transform="translate(258.484145, 200.291528)"><g><path d="M 76.46875 -107.28125 C 88.894531 -107.28125 98.816406 -103.253906 106.234375 -95.203125 C 113.648438 -87.148438 117.359375 -76.082031 117.359375 -62 L 117.359375 0 L 85.015625 0 L 85.015625 -57.625 C 85.015625 -64.726562 83.175781 -70.242188 79.5 -74.171875 C 75.820312 -78.109375 70.878906 -80.078125 64.671875 -80.078125 C 58.453125 -80.078125 53.503906 -78.109375 49.828125 -74.171875 C 46.148438 -70.242188 44.3125 -64.726562 44.3125 -57.625 L 44.3125 0 L 11.796875 0 L 11.796875 -106.140625 L 44.3125 -106.140625 L 44.3125 -92.0625 C 47.613281 -96.75 52.050781 -100.457031 57.625 -103.1875 C 63.207031 -105.914062 69.488281 -107.28125 76.46875 -107.28125 Z M 76.46875 -107.28125 "/></g></g></g><g fill="#000000" fill-opacity="1"><g transform="translate(386.682618, 200.291528)"><g><path d="M 70.953125 -27.578125 L 70.953125 0 L 54.390625 0 C 42.597656 0 33.40625 -2.882812 26.8125 -8.65625 C 20.21875 -14.425781 16.921875 -23.84375 16.921875 -36.90625 L 16.921875 -79.125 L 4 -79.125 L 4 -106.140625 L 16.921875 -106.140625 L 16.921875 -132 L 49.453125 -132 L 49.453125 -106.140625 L 70.75 -106.140625 L 70.75 -79.125 L 49.453125 -79.125 L 49.453125 -36.515625 C 49.453125 -33.347656 50.210938 -31.066406 51.734375 -29.671875 C 53.253906 -28.273438 55.789062 -27.578125 59.34375 -27.578125 Z M 70.953125 -27.578125 "/></g></g></g><g fill="#000000" fill-opacity="1"><g transform="translate(463.906037, 200.291528)"><g><path d="M 111.84375 -54.78125 C 111.84375 -51.738281 111.648438 -48.566406 111.265625 -45.265625 L 37.65625 -45.265625 C 38.164062 -38.671875 40.289062 -33.628906 44.03125 -30.140625 C 47.769531 -26.660156 52.367188 -24.921875 57.828125 -24.921875 C 65.941406 -24.921875 71.582031 -28.34375 74.75 -35.1875 L 109.359375 -35.1875 C 107.585938 -28.207031 104.382812 -21.925781 99.75 -16.34375 C 95.125 -10.769531 89.320312 -6.398438 82.34375 -3.234375 C 75.375 -0.0664062 67.582031 1.515625 58.96875 1.515625 C 48.5625 1.515625 39.300781 -0.703125 31.1875 -5.140625 C 23.070312 -9.578125 16.734375 -15.914062 12.171875 -24.15625 C 7.609375 -32.394531 5.328125 -42.03125 5.328125 -53.0625 C 5.328125 -64.09375 7.578125 -73.726562 12.078125 -81.96875 C 16.578125 -90.21875 22.882812 -96.5625 31 -101 C 39.113281 -105.4375 48.4375 -107.65625 58.96875 -107.65625 C 69.238281 -107.65625 78.363281 -105.5 86.34375 -101.1875 C 94.332031 -96.875 100.578125 -90.722656 105.078125 -82.734375 C 109.585938 -74.742188 111.84375 -65.425781 111.84375 -54.78125 Z M 78.546875 -63.34375 C 78.546875 -68.914062 76.644531 -73.347656 72.84375 -76.640625 C 69.039062 -79.941406 64.285156 -81.59375 58.578125 -81.59375 C 53.128906 -81.59375 48.535156 -80.007812 44.796875 -76.84375 C 41.054688 -73.675781 38.738281 -69.175781 37.84375 -63.34375 Z M 78.546875 -63.34375 "/></g></g></g><g fill="#000000" fill-opacity="1"><g transform="translate(581.072619, 200.291528)"><g><path d="M 44.3125 -140.75 L 44.3125 0 L 11.796875 0 L 11.796875 -140.75 Z M 44.3125 -140.75 "/></g></g></g><g fill="#000000" fill-opacity="1"><g transform="translate(637.183166, 200.291528)"><g><path d="M 28.15625 -117.171875 C 22.445312 -117.171875 17.785156 -118.847656 14.171875 -122.203125 C 10.554688 -125.566406 8.75 -129.71875 8.75 -134.65625 C 8.75 -139.726562 10.554688 -143.945312 14.171875 -147.3125 C 17.785156 -150.675781 22.445312 -152.359375 28.15625 -152.359375 C 33.726562 -152.359375 38.320312 -150.675781 41.9375 -147.3125 C 45.550781 -143.945312 47.359375 -139.726562 47.359375 -134.65625 C 47.359375 -129.71875 45.550781 -125.566406 41.9375 -122.203125 C 38.320312 -118.847656 33.726562 -117.171875 28.15625 -117.171875 Z M 44.3125 -106.140625 L 44.3125 0 L 11.796875 0 L 11.796875 -106.140625 Z M 44.3125 -106.140625 "/></g></g></g><g fill="#000000" fill-opacity="1"><g transform="translate(693.293837, 200.291528)"><g><path d="M 60.109375 1.515625 C 49.703125 1.515625 40.347656 -0.703125 32.046875 -5.140625 C 23.742188 -9.578125 17.210938 -15.914062 12.453125 -24.15625 C 7.703125 -32.394531 5.328125 -42.03125 5.328125 -53.0625 C 5.328125 -63.96875 7.734375 -73.570312 12.546875 -81.875 C 17.367188 -90.1875 23.960938 -96.5625 32.328125 -101 C 40.703125 -105.4375 50.085938 -107.65625 60.484375 -107.65625 C 70.878906 -107.65625 80.257812 -105.4375 88.625 -101 C 97 -96.5625 103.59375 -90.1875 108.40625 -81.875 C 113.226562 -73.570312 115.640625 -63.96875 115.640625 -53.0625 C 115.640625 -42.15625 113.195312 -32.550781 108.3125 -24.25 C 103.4375 -15.945312 96.78125 -9.578125 88.34375 -5.140625 C 79.914062 -0.703125 70.503906 1.515625 60.109375 1.515625 Z M 60.109375 -26.625 C 66.316406 -26.625 71.609375 -28.90625 75.984375 -33.46875 C 80.359375 -38.039062 82.546875 -44.570312 82.546875 -53.0625 C 82.546875 -61.5625 80.421875 -68.09375 76.171875 -72.65625 C 71.921875 -77.21875 66.691406 -79.5 60.484375 -79.5 C 54.140625 -79.5 48.875 -77.25 44.6875 -72.75 C 40.507812 -68.25 38.421875 -61.6875 38.421875 -53.0625 C 38.421875 -44.570312 40.476562 -38.039062 44.59375 -33.46875 C 48.71875 -28.90625 53.890625 -26.625 60.109375 -26.625 Z M 60.109375 -26.625 "/></g></g></g></g></g></svg>